Genre:Comedy | Romance
Language:English
IMDb:http://www.imdb.com/title/tt1182350/
Source:720p.Bluray.x264.DTS.HDChina
Subtitles:Romana


Free.mkv
Format : Matroska
File size : 1.74 GiB
Duration : 1h 38mn
Overall bit rate : 2 530 Kbps


Video
Format settings, CABAC : Yes
Format settings, ReFrames : 4 frames
Codec ID : V_MPEG4/ISO/AVC
Duration : 1h 38mn
Bit rate : 2 200 Kbps
Width : 1 280 pixels
Height : 720 pixels
Display aspect ratio : 16:9
Frame rate mode : Variable
Frame rate : 23.976 fps
Color space : YUV
Chroma subsampling : 4:2:0
Bit depth : 8 bits
Scan type : Progressive
Bits/(Pixel*Frame) : 0.100
Stream size : 1.44 GiB (83%)
Writing library : x264


Audio
ID : 2
Format : AC-3
Format/Info : Audio Coding 3
Mode extension : CM (complete main)
Codec ID : A_AC3
Duration : 1h 38mn
Bit rate mode : Constant
Bit rate : 384 Kbps
Channel(s) : 3 channels
Channel positions : Front: L C R
Sampling rate : 48.0 KHz
Bit depth : 16 bits
Video delay : -1mn 5s
Stream size : 271 MiB (15%)
Language : English


Plot:
Follows a pair of married couples, Alfie (Hopkins) and Helena (Jones), and their daughter Sally (Watts) and husband Roy (Brolin)
 
http://www.rapidhdd.com/images/199235vlcsnap-00005.png
 
http://www.rapidhdd.com/images/752707vlcsnap-00007.png
 
http://www.rapidhdd.com/images/705612vlcsnap-00003.png
 
http://rapidhdd.com/images/561075vlcsnap-00001.png


Greets:

INK,CRYS,IMAGINE,LKRG,FXG,3Li,FLAWL3SS,TA,iLLUSiON,ViSiON,LU,TheFalcon007,PrisM,Noir,WBZ,LAP,Rx,Kingdom,SAFCuk009+Fabreezy,HDLiTE,TWiZTED,ExtraTorrentRG.ELEKTRI4KA,MAGNAT,CM8
And to all the other p2p grps past and present




Make sure its a real Feel-Free release @ extratorrent